<svg width="12" height="12" viewBox="0 0 12 12" fill="none" xmlns="http://www.w3.org/2000/svg">
<path d="M6.00001 0C3.58095 0 1.61292 2.00339 1.61292 4.46591C1.61292 5.84333 2.30957 7.5152 3.6836 9.43507C4.68912 10.8401 5.67997 11.8421 5.72167 11.8841C5.79831 11.9613 5.89914 12 6.00008 12C6.0981 12 6.19618 11.9635 6.27222 11.8902C6.314 11.85 7.30736 10.8885 8.31478 9.50289C9.68991 7.61146 10.3872 5.91679 10.3872 4.46588C10.3871 2.00339 8.41903 0 6.00001 0ZM6.00001 6.3939C4.81735 6.3939 3.85521 5.43175 3.85521 4.24911C3.85521 3.06647 4.81737 2.10432 6.00001 2.10432C7.18265 2.10432 8.14481 3.06647 8.14481 4.24911C8.14481 5.43175 7.18262 6.3939 6.00001 6.3939Z" fill="black"/>
</svg>
