<svg width="73" height="73" viewBox="0 0 73 73" fill="none" xmlns="http://www.w3.org/2000/svg">
<path d="M57.7917 33.4583H39.5417V15.2083C39.5417 14.4016 39.2212 13.628 38.6508 13.0576C38.0803 12.4871 37.3067 12.1667 36.5 12.1667C35.6933 12.1667 34.9196 12.4871 34.3492 13.0576C33.7788 13.628 33.4583 14.4016 33.4583 15.2083V33.4583H15.2083C14.4016 33.4583 13.628 33.7788 13.0575 34.3492C12.4871 34.9196 12.1667 35.6933 12.1667 36.5C12.1667 37.3067 12.4871 38.0804 13.0575 38.6508C13.628 39.2212 14.4016 39.5417 15.2083 39.5417H33.4583V57.7917C33.4583 58.5984 33.7788 59.372 34.3492 59.9425C34.9196 60.5129 35.6933 60.8333 36.5 60.8333C37.3067 60.8333 38.0803 60.5129 38.6508 59.9425C39.2212 59.372 39.5417 58.5984 39.5417 57.7917V39.5417H57.7917C58.5984 39.5417 59.372 39.2212 59.9424 38.6508C60.5129 38.0804 60.8333 37.3067 60.8333 36.5C60.8333 35.6933 60.5129 34.9196 59.9424 34.3492C59.372 33.7788 58.5984 33.4583 57.7917 33.4583Z" fill="white" fill-opacity="0.8"/>
</svg>
